<svg xmlns="http://www.w3.org/2000/svg" version="1.1" xmlns:xlink="http://www.w3.org/1999/xlink" xmlns:svgjs="http://svgjs.dev/svgjs" width="2000" height="1500" viewBox="0 0 2000 1500"><rect width="2000" height="1500" fill="#ffffff"></rect><g transform="matrix(0.75,0,0,0.75,249.090909090909,282.7536437246963)"><svg viewBox="0 0 396 247" data-background-color="#bfbad2" preserveAspectRatio="xMidYMid meet" height="1247" width="2000" xmlns="http://www.w3.org/2000/svg" xmlns:xlink="http://www.w3.org/1999/xlink"><g id="tight-bounds" transform="matrix(1,0,0,1,0.2400000000000091,-0.09999999999999432)"><svg viewBox="0 0 395.52 247.2" height="247.2" width="395.52"><g><svg></svg></g><g><svg viewBox="0 0 395.52 247.2" height="247.2" width="395.52"><mask id="e278767a-bb83-43d6-ba79-3447c41f81d1"><rect width="395.52" height="247.2" fill="white"></rect><g transform="matrix(1,0,0,1,0,86.97199316430567)" id="clone"><svg viewBox="0 0 395.52 73.25601367138864" height="73.25601367138864" width="395.52"><g><svg viewBox="0 0 395.52 73.25601367138864" height="73.25601367138864" width="395.52"><g><svg viewBox="0 0 395.52 73.25601367138864" height="73.25601367138864" width="395.52"><g><svg viewBox="0 0 395.52 73.25601367138864" height="73.25601367138864" width="395.52"><g id="SvgjsG1161"><svg viewBox="0 0 395.52 73.25601367138864" height="73.25601367138864" width="395.52" id="SvgjsSvg1160"><g><svg viewBox="0 0 395.52 43.39417507093593" height="43.39417507093593" width="395.52"><g transform="matrix(1,0,0,1,0,0)"><svg width="395.52" viewBox="0.6600000000000001 -34.25 460.44 51.41" height="43.39417507093593" data-palette-color="#ff26a0"><path d="M4.15 0L4.15-3.91 10.25-3.91 10.25-26.49 3.66-26.49 3.66-30.4 17.94-30.4 39.31-8.25 39.31-26.49 32.71-26.49 32.71-30.4 51.39-30.4 51.39-26.49 44.8-26.49 44.8 0 39.55 0 15.75-25.2 15.75-3.91 22.34-3.91 22.34 0 4.15 0ZM41.02 1.71L46.56 1.71 46.56-24.78 53.15-24.78 53.15-29.17 54.13-29.17 54.13-23.85 47.53-23.85 47.53 2.64 41.02 2.64 41.02 1.71ZM21.36-29.17L22.66-29.17 38.35-13.35 38.35-11.94 21.36-29.17ZM34.18-23.85L34.18-24.78 38.28-24.78 38.28-23.85 34.18-23.85ZM5.13-23.85L5.13-24.78 9.23-23.85 9.23-23.85 5.13-23.85ZM17.5-5.37L17.5-21.88 18.48-20.8 18.48-5.37 17.5-5.37ZM5.62 1.71L24.1 1.71 24.1-2.54 25.07-2.54 25.07 2.64 5.62 2.64 5.62 1.71ZM62.89-5.47L62.89-5.47Q62.4-6.71 62.17-8.18 61.94-9.64 61.94-11.4L61.94-11.4 61.94-19.41 57.79-19.41 57.79-23.56 67.19-23.56 67.19-13.48Q67.19-11.5 67.37-9.95 67.55-8.4 67.89-7.52L67.89-7.52Q68.33-6.4 69.04-5.62 69.75-4.83 70.64-4.35 71.53-3.86 72.57-3.64 73.61-3.42 74.73-3.42L74.73-3.42Q75.93-3.42 77.21-3.86 78.49-4.3 79.69-5.08 80.88-5.86 81.92-6.93 82.96-8.01 83.66-9.25L83.66-9.25 83.66-19.41 78.29-19.41 78.29-23.56 88.91-23.56 88.91-3.66 93.06-3.66 93.06 0 83.66 0 83.66-3.71Q82.88-2.76 81.77-1.95 80.66-1.15 79.31-0.55 77.95 0.05 76.39 0.39 74.83 0.73 73.14 0.73L73.14 0.73Q69.5 0.73 66.83-0.79 64.16-2.32 62.89-5.47ZM90.62-5.13L90.62-22.31 91.6-22.31 91.6-5.13 90.62-5.13ZM68.94-12.01L68.94-22.31 69.92-22.31 69.92-12.28Q69.92-10.38 70.29-9.11 70.65-7.84 71.26-7.03 71.87-6.23 72.65-5.79 73.44-5.35 74.27-5.1L74.27-5.1Q71.7-5.13 70.32-6.8 68.94-8.47 68.94-12.01L68.94-12.01ZM79.76-16.77L79.76-17.7 82.64-17.7 82.64-16.77 79.76-16.77ZM59.25-16.77L59.25-17.7 60.91-17.7 60.91-16.77 59.25-16.77ZM85.13 1.71L94.82 1.71 94.82-2.29 95.8-2.29 95.8 2.64 85.13 2.64 85.13 1.71ZM63.16-1.64L63.16-1.64Q65.06 0.42 67.45 1.43 69.85 2.44 73.17 2.44L73.17 2.44Q76.12 2.44 78.45 1.67 80.78 0.9 82.69-0.42L82.69-0.42 82.69 0.71Q80.54 2.1 78.22 2.73 75.9 3.37 73.19 3.37L73.19 3.37Q69.5 3.37 66.92 2.09 64.33 0.81 63.16-1.64ZM102.07 0L102.07-3.66 107.44-3.66 107.44-19.41 102.07-19.41 102.07-23.56 112.69-23.56 112.69-19.87Q113.45-20.8 114.51-21.61 115.57-22.41 116.89-23.01 118.21-23.61 119.75-23.95 121.28-24.29 122.97-24.29L122.97-24.29Q125.51-24.29 127.58-23.57 129.66-22.85 131.12-21.35 132.59-19.85 133.38-17.57 134.17-15.28 134.17-12.16L134.17-12.16 134.17-3.66 139.55-3.66 139.55 0 124.78 0 124.78-3.66 128.93-3.66 128.93-10.08Q128.93-12.06 128.74-13.61 128.56-15.16 128.22-16.04L128.22-16.04Q127.78-17.16 127.11-17.94 126.44-18.73 125.59-19.21 124.75-19.7 123.75-19.92 122.75-20.14 121.63-20.14L121.63-20.14Q120.43-20.14 119.15-19.7 117.87-19.26 116.66-18.47 115.45-17.68 114.41-16.6 113.37-15.53 112.69-14.28L112.69-14.28 112.69-3.66 116.84-3.66 116.84 0 102.07 0ZM135.93-5.13L135.93-11.99Q135.93-14.14 135.6-15.98 135.27-17.82 134.61-19.3 133.95-20.78 132.99-21.85 132.03-22.92 130.76-23.56L130.76-23.56Q132.42-23.14 133.59-22.16 134.76-21.17 135.49-19.65 136.23-18.14 136.57-16.16 136.91-14.18 136.91-11.82L136.91-11.82 136.91-5.13 135.93-5.13ZM114.45-5.13L114.45-13.67Q115.06-14.75 115.9-15.63 116.74-16.5 117.73-17.13 118.72-17.75 119.81-18.09 120.89-18.43 121.97-18.43L121.97-18.43Q123.65-18.43 124.7-17.8 125.75-17.16 126.24-16.19L126.24-16.19Q125.48-16.75 124.47-17.14 123.46-17.53 121.92-17.53L121.92-17.53Q120.97-17.53 119.99-17.18 119.01-16.82 118.13-16.24 117.26-15.65 116.55-14.89 115.84-14.14 115.42-13.35L115.42-13.35 115.42-5.13 114.45-5.13ZM103.54-16.77L103.54-17.7 106.42-17.7 106.42-16.77 103.54-16.77ZM126.24 1.71L141.3 1.71 141.3-2.29 142.28-2.29 142.28 2.64 126.24 2.64 126.24 1.71ZM103.54 1.71L118.6 1.71 118.6-2.29 119.58-2.29 119.58 2.64 103.54 2.64 103.54 1.71ZM146.01-11.33L146.01-11.33Q146.01-13.92 146.97-16.26 147.92-18.6 149.82-20.39 151.73-22.17 154.56-23.23 157.39-24.29 161.13-24.29L161.13-24.29Q164.64-24.29 167.4-23.35 170.16-22.41 172.09-20.63 174.02-18.85 175.03-16.27 176.04-13.7 176.04-10.4L176.04-10.4 151.36-10.4Q151.58-8.64 152.49-7.28 153.41-5.91 154.83-4.97 156.24-4.03 158.04-3.54 159.83-3.05 161.78-3.05L161.78-3.05Q163.37-3.05 165.02-3.31 166.67-3.56 168.13-4 169.6-4.44 170.74-4.99 171.89-5.54 172.5-6.13L172.5-6.13 173.43-6.13 175.72-3.64Q173.21-1.49 169.61-0.38 166.01 0.73 161.66 0.73L161.66 0.73Q157.88 0.73 154.96-0.2 152.04-1.12 150.05-2.76 148.06-4.39 147.04-6.59 146.01-8.79 146.01-11.33ZM153.7-8.69L177.7-8.69Q177.75-9.06 177.78-9.48 177.8-9.91 177.8-10.4L177.8-10.4Q177.8-12.48 177.37-14.37 176.95-16.26 176.13-17.88 175.31-19.51 174.11-20.85 172.92-22.19 171.4-23.14L171.4-23.14Q173.01-22.51 174.37-21.4 175.72-20.29 176.7-18.7 177.68-17.11 178.23-15.04 178.78-12.96 178.78-10.4L178.78-10.4Q178.78-10.21 178.76-9.91 178.75-9.62 178.73-9.25 178.7-8.89 178.67-8.51 178.63-8.13 178.58-7.76L178.58-7.76 155.51-7.76Q155.97-6.98 157.22-6.16 158.46-5.35 160.44-4.79L160.44-4.79Q159.22-4.79 158.16-5.08 157.1-5.37 156.23-5.88 155.36-6.4 154.72-7.12 154.07-7.84 153.7-8.69L153.7-8.69ZM151.51-13.45L170.4-13.45Q170.01-15.14 169.19-16.46 168.38-17.77 167.18-18.66 165.98-19.56 164.45-20.03 162.91-20.51 161.08-20.51L161.08-20.51Q159.1-20.51 157.48-19.98 155.85-19.46 154.63-18.52 153.41-17.58 152.62-16.28 151.82-14.99 151.51-13.45L151.51-13.45ZM154.85-14.5L153.73-14.5Q154.63-16.5 156.57-17.65 158.51-18.8 161.08-18.8L161.08-18.8Q162.13-18.8 163.12-18.63 164.1-18.46 164.95-18.1 165.79-17.75 166.42-17.24 167.06-16.72 167.42-16.06L167.42-16.06Q166.03-16.99 164.45-17.43 162.86-17.87 161.03-17.87L161.03-17.87Q158.9-17.87 157.29-16.99 155.68-16.11 154.85-14.5L154.85-14.5ZM148.97-1.07L148.97-1.07Q151.34 0.61 154.47 1.54 157.61 2.47 161.66 2.47L161.66 2.47Q165.62 2.47 169.07 1.56 172.53 0.66 175.31-1.2L175.31-1.2 175.97-0.49Q172.82 1.64 169.34 2.51 165.86 3.39 162.05 3.39L162.05 3.39Q157.1 3.39 153.84 2.2 150.58 1 148.97-1.07ZM185.2 0L185.2-6.71 190.22-6.71Q190.88-5.71 192.1-4.96 193.32-4.2 194.9-3.71 196.47-3.22 198.35-2.98 200.23-2.73 202.21-2.73L202.21-2.73Q203.85-2.73 204.99-2.98 206.14-3.22 206.85-3.66 207.56-4.1 207.88-4.69 208.19-5.27 208.19-5.98L208.19-5.98Q208.19-7.47 205.81-8.53 203.43-9.59 198.28-10.16L198.28-10.16Q194.86-10.52 192.57-11.17 190.27-11.82 188.87-12.74 187.47-13.67 186.87-14.87 186.27-16.06 186.27-17.5L186.27-17.5Q186.27-18.75 187.05-19.97 187.83-21.19 189.43-22.16 191.03-23.12 193.43-23.71 195.84-24.29 199.09-24.29L199.09-24.29Q200.14-24.29 201.24-24.15 202.33-24 203.38-23.72 204.43-23.44 205.39-23.05 206.34-22.66 207.09-22.17L207.09-22.17 207.09-23.54 212.34-23.54 212.34-16.94 207.09-16.94Q206.83-17.7 205.97-18.38 205.12-19.07 203.95-19.58 202.77-20.09 201.45-20.4 200.14-20.7 198.96-20.7L198.96-20.7Q197.43-20.7 196.06-20.48 194.69-20.26 193.69-19.86 192.69-19.46 192.1-18.9 191.52-18.33 191.52-17.65L191.52-17.65Q191.52-17.02 191.97-16.5 192.42-15.99 193.48-15.55 194.55-15.11 196.32-14.73 198.09-14.36 200.72-14.04L200.72-14.04Q204.24-13.6 206.66-12.92 209.07-12.23 210.59-11.24 212.1-10.25 212.77-8.94 213.44-7.62 213.44-5.91L213.44-5.91Q213.44-4.66 212.69-3.48 211.93-2.29 210.48-1.35 209.02-0.42 206.91 0.16 204.8 0.73 202.07 0.73L202.07 0.73Q200.31 0.73 198.77 0.6 197.23 0.46 195.82 0.15 194.4-0.17 193.08-0.66 191.76-1.15 190.44-1.86L190.44-1.86 190.44 0 185.2 0ZM208.29-14.31L208.29-15.23 214.1-15.23 214.1-22.51 215.08-22.51 215.08-14.31 208.29-14.31ZM193.3-17.65L193.3-17.65Q193.37-17.97 193.89-18.24 194.4-18.51 195.19-18.71 195.99-18.92 196.95-19.04 197.91-19.17 198.89-19.17L198.89-19.17Q199.72-19.17 200.61-19.04 201.5-18.92 202.3-18.7 203.09-18.48 203.74-18.15 204.38-17.82 204.75-17.41L204.75-17.41Q204.19-17.65 203.41-17.81 202.63-17.97 201.81-18.07 200.99-18.16 200.21-18.21 199.43-18.26 198.89-18.26L198.89-18.26Q196.91-18.26 195.46-18.07 194.01-17.87 193.3-17.65ZM186.61-12.82L186.61-12.82Q187.29-11.94 188.25-11.25 189.2-10.57 190.54-10.03 191.88-9.5 193.67-9.12 195.45-8.74 197.77-8.47L197.77-8.47Q199.89-8.23 201.45-7.95 203.02-7.67 204.07-7.32 205.12-6.98 205.7-6.56 206.29-6.13 206.46-5.59L206.46-5.59Q205.95-5.93 205.29-6.19 204.63-6.45 203.6-6.67 202.58-6.88 201.08-7.1 199.57-7.32 197.35-7.59L197.35-7.59Q192.76-8.13 190.1-9.34 187.44-10.55 186.61-12.82ZM186.39 1.71L192.2 1.71 192.2 0.68Q192.89 1 193.94 1.31 194.99 1.61 196.29 1.87 197.6 2.12 199.06 2.28 200.53 2.44 202.04 2.44L202.04 2.44Q205.07 2.44 207.51 1.77 209.95 1.1 211.66-0.04 213.37-1.17 214.28-2.67 215.2-4.17 215.2-5.83L215.2-5.83Q215.2-6.49 215.13-7.06 215.05-7.62 214.87-8.13 214.69-8.64 214.38-9.16 214.08-9.67 213.61-10.23L213.61-10.23Q216.18-8.72 216.18-5.83L216.18-5.83Q216.18-3.88 215.18-2.2 214.17-0.51 212.33 0.72 210.49 1.95 207.88 2.66 205.26 3.37 202.02 3.37L202.02 3.37Q200.82 3.37 199.6 3.26 198.38 3.15 197.23 2.95 196.08 2.76 195.06 2.49 194.03 2.22 193.23 1.88L193.23 1.88 193.23 2.69 186.39 2.69 186.39 1.71ZM239.44 0L239.44-8.79 244.44-8.79Q247.69-5.86 251.38-4.5 255.06-3.15 259.09-3.15L259.09-3.15Q260.85-3.15 262.31-3.49 263.78-3.83 264.85-4.43 265.93-5.03 266.53-5.83 267.12-6.64 267.12-7.57L267.12-7.57Q267.12-8.64 266.44-9.55 265.76-10.45 264.26-11.18 262.75-11.91 260.4-12.45 258.04-12.99 254.72-13.33L254.72-13.33Q250.86-13.72 248.15-14.61 245.44-15.5 243.72-16.77 242-18.04 241.21-19.6 240.41-21.17 240.41-22.9L240.41-22.9Q240.41-24.51 241.34-26.01 242.27-27.51 244.1-28.67 245.93-29.83 248.67-30.54 251.4-31.25 255.01-31.25L255.01-31.25Q257.11-31.25 258.86-30.92 260.61-30.59 262.08-30.03 263.56-29.47 264.8-28.7 266.05-27.93 267.15-27.05L267.15-27.05 267.15-30.4 272.64-30.4 272.64-21.61 267.15-21.61Q266.42-22.83 265.24-23.88 264.07-24.93 262.55-25.7 261.02-26.46 259.21-26.9 257.41-27.34 255.43-27.34L255.43-27.34Q253.35-27.34 251.78-26.97 250.2-26.59 249.14-25.99 248.08-25.39 247.54-24.66 247.01-23.93 247.01-23.22L247.01-23.22Q247.01-22.31 247.48-21.5 247.96-20.68 249.17-19.98 250.38-19.29 252.45-18.74 254.53-18.19 257.72-17.8L257.72-17.8Q262.22-17.24 265.24-16.38 268.27-15.53 270.1-14.32 271.93-13.11 272.71-11.51 273.5-9.91 273.5-7.91L273.5-7.91Q273.5-6.4 272.68-4.86 271.86-3.32 270.19-2.08 268.52-0.83 265.95-0.05 263.39 0.73 259.92 0.73L259.92 0.73Q257.75 0.73 255.76 0.45 253.77 0.17 251.93-0.38 250.08-0.93 248.35-1.73 246.62-2.54 244.93-3.61L244.93-3.61 244.93 0 239.44 0ZM268.61-18.97L268.61-19.9 274.4-19.9 274.4-29.15 275.42-29.15 275.42-18.97 268.61-18.97ZM249.03-23.36L249.03-23.36Q249.03-23.88 249.56-24.29 250.08-24.71 251.01-25 251.94-25.29 253.2-25.46 254.45-25.63 255.92-25.63L255.92-25.63Q258.14-25.63 260.03-24.94 261.92-24.24 263.17-23.14L263.17-23.14Q262.49-23.44 261.63-23.72 260.78-24 259.84-24.23 258.9-24.46 257.91-24.6 256.92-24.73 255.97-24.73L255.97-24.73Q253.31-24.73 251.58-24.3 249.86-23.88 249.03-23.36ZM241.12-17.04L241.12-17.04Q241.95-15.97 243.06-15.11 244.17-14.26 245.75-13.6 247.32-12.94 249.44-12.45 251.55-11.96 254.38-11.65L254.38-11.65Q257.14-11.33 259.1-10.99 261.07-10.64 262.36-10.24 263.66-9.84 264.35-9.33 265.05-8.81 265.29-8.13L265.29-8.13Q264.58-8.54 263.79-8.87 263-9.2 261.75-9.51 260.51-9.81 258.63-10.11 256.75-10.4 253.89-10.74L253.89-10.74Q250.89-11.11 248.58-11.74 246.27-12.38 244.67-13.2 243.08-14.01 242.18-15 241.29-15.99 241.12-17.04ZM240.9 1.71L246.69 1.71 246.69-0.71Q249.62 0.83 252.82 1.64 256.02 2.44 259.9 2.44L259.9 2.44Q262.85 2.44 265.61 1.81 268.37 1.17 270.52-0.1 272.67-1.37 273.96-3.3 275.25-5.22 275.25-7.81L275.25-7.81Q275.25-9.38 274.92-10.66 274.59-11.94 273.62-13.23L273.62-13.23Q274.2-12.82 274.68-12.22 275.16-11.62 275.5-10.9 275.84-10.18 276.03-9.39 276.23-8.59 276.23-7.81L276.23-7.81Q276.23-5.13 274.95-3.05 273.67-0.98 271.44 0.45 269.22 1.88 266.24 2.62 263.27 3.37 259.87 3.37L259.87 3.37Q256.06 3.37 253.07 2.71 250.08 2.05 247.71 0.88L247.71 0.88 247.71 2.64 240.9 2.64 240.9 1.71ZM283.41 7.86L287.56 7.86 287.56-19.41 282.18-19.41 282.18-23.56 292.8-23.56 292.8-20.31Q294.64-22.17 297.25-23.23 299.86-24.29 302.94-24.29L302.94-24.29Q306.31-24.29 308.92-23.28 311.53-22.27 313.31-20.59 315.09-18.92 316.02-16.77 316.95-14.62 316.95-12.33L316.95-12.33Q316.95-9.35 315.94-7.02 314.92-4.69 313.09-3.08 311.26-1.46 308.72-0.61 306.18 0.24 303.11 0.24L303.11 0.24Q299.93 0.24 297.28-0.72 294.64-1.68 292.8-3.52L292.8-3.52 292.8 7.86 299.4 7.86 299.4 11.52 283.41 11.52 283.41 7.86ZM294.44 6.64L294.44-0.05Q296.2 0.93 298.51 1.44 300.81 1.95 303.16 1.95L303.16 1.95Q306.38 1.95 309.21 1.04 312.04 0.12 314.15-1.67 316.27-3.47 317.49-6.14 318.71-8.81 318.71-12.33L318.71-12.33Q318.71-13.84 318.27-15.44 317.83-17.04 317.02-18.54 316.22-20.04 315.05-21.36 313.87-22.68 312.41-23.63L312.41-23.63Q314.24-22.8 315.62-21.5 317-20.19 317.91-18.65 318.83-17.11 319.29-15.47 319.76-13.82 319.76-12.33L319.76-12.33Q319.76-8.89 318.61-6.08 317.46-3.27 315.3-1.28 313.14 0.71 310.05 1.79 306.96 2.88 303.08 2.88L303.08 2.88Q302.11 2.88 301.08 2.77 300.06 2.66 299.05 2.47 298.05 2.27 297.11 2 296.17 1.73 295.42 1.39L295.42 1.39 295.42 6.64 294.44 6.64ZM292.8-11.84L292.8-11.84Q292.8-9.89 293.62-8.35 294.44-6.81 295.86-5.74 297.27-4.66 299.16-4.09 301.06-3.52 303.23-3.52L303.23-3.52Q305.16-3.52 306.71-4.13 308.26-4.74 309.36-5.86 310.46-6.98 311.05-8.58 311.65-10.18 311.65-12.13L311.65-12.13Q311.65-13.99 310.96-15.54 310.26-17.09 309.04-18.19 307.82-19.29 306.17-19.9 304.52-20.51 302.62-20.51L302.62-20.51Q300.54-20.51 298.75-19.9 296.96-19.29 295.64-18.15 294.32-17.02 293.56-15.42 292.8-13.82 292.8-11.84ZM294.56-11.87L294.56-11.87Q294.56-13.26 295.14-14.53 295.71-15.8 296.76-16.75 297.81-17.7 299.27-18.26 300.74-18.82 302.55-18.82L302.55-18.82Q304.47-18.82 305.96-18.15 307.45-17.48 308.23-16.38L308.23-16.38Q306.77-17.31 305.37-17.59 303.96-17.87 302.55-17.87L302.55-17.87Q300.96-17.87 299.68-17.37 298.4-16.87 297.48-16.05 296.56-15.23 296.08-14.16 295.59-13.09 295.59-11.94L295.59-11.94Q295.59-9.72 296.71-8.11 297.83-6.49 300.35-5.32L300.35-5.32Q299.05-5.59 297.99-6.16 296.93-6.74 296.16-7.58 295.39-8.42 294.98-9.5 294.56-10.57 294.56-11.87ZM283.65-16.77L283.65-17.7 286.53-17.7 286.53-16.77 283.65-16.77ZM284.87 13.23L301.15 13.23 301.15 9.23 302.13 9.23 302.13 14.16 284.87 14.16 284.87 13.23ZM324.93-11.4L324.93-11.4Q324.93-14.06 326.08-16.42 327.23-18.77 329.29-20.52 331.35-22.27 334.23-23.28 337.11-24.29 340.56-24.29L340.56-24.29Q344.17-24.29 347.01-23.33 349.86-22.36 351.82-20.65 353.79-18.95 354.83-16.6 355.86-14.26 355.86-11.5L355.86-11.5Q355.86-8.84 354.73-6.59 353.59-4.35 351.51-2.72 349.42-1.1 346.5-0.18 343.58 0.73 339.99 0.73L339.99 0.73Q336.6 0.73 333.83-0.28 331.06-1.29 329.08-2.98 327.1-4.66 326.02-6.85 324.93-9.03 324.93-11.4ZM328.76-1.12L328.76-1.12Q331.13 0.59 334 1.51 336.87 2.44 340.48 2.44L340.48 2.44Q343.85 2.44 346.95 1.53 350.05 0.61 352.42-1.17 354.79-2.95 356.21-5.55 357.62-8.15 357.62-11.5L357.62-11.5Q357.62-13.13 357.17-14.81 356.72-16.48 355.9-18.02 355.08-19.56 353.91-20.89 352.74-22.22 351.3-23.14L351.3-23.14Q352.93-22.41 354.29-21.22 355.64-20.02 356.6-18.49 357.55-16.97 358.07-15.19 358.6-13.4 358.6-11.5L358.6-11.5Q358.6-9.11 357.91-7.07 357.23-5.03 356.02-3.38 354.81-1.73 353.14-0.46 351.47 0.81 349.47 1.65 347.47 2.49 345.21 2.93 342.95 3.37 340.61 3.37L340.61 3.37Q338.65 3.37 336.87 3.06 335.09 2.76 333.56 2.19 332.04 1.61 330.81 0.78 329.59-0.05 328.76-1.12ZM330.35-11.5L330.35-11.5Q330.35-9.62 331.07-8.07 331.79-6.52 333.11-5.41 334.43-4.3 336.27-3.69 338.11-3.08 340.36-3.08L340.36-3.08Q342.63-3.08 344.49-3.7 346.34-4.32 347.69-5.43 349.03-6.54 349.76-8.09 350.49-9.64 350.49-11.5L350.49-11.5Q350.49-13.33 349.76-14.95 349.03-16.58 347.71-17.81 346.39-19.04 344.55-19.76 342.7-20.48 340.48-20.48L340.48-20.48Q338.16-20.48 336.3-19.79 334.43-19.09 333.11-17.88 331.79-16.67 331.07-15.04 330.35-13.4 330.35-11.5ZM332.06-11.4L332.06-11.4Q332.06-12.94 332.67-14.29 333.28-15.65 334.39-16.64 335.5-17.63 337.05-18.2 338.6-18.77 340.48-18.77L340.48-18.77Q341.68-18.77 342.8-18.52 343.93-18.26 344.88-17.77 345.83-17.29 346.56-16.59 347.29-15.89 347.73-15.01L347.73-15.01Q346.12-16.48 344.38-17.16 342.63-17.85 340.43-17.85L340.43-17.85Q338.85-17.85 337.5-17.33 336.16-16.82 335.16-15.94 334.16-15.06 333.6-13.89 333.04-12.72 333.04-11.4L333.04-11.4Q333.04-10.3 333.31-9.35 333.57-8.4 334.22-7.58 334.87-6.76 335.94-6.1 337.02-5.44 338.63-4.93L338.63-4.93Q337.16-5.03 335.95-5.55 334.75-6.08 333.88-6.93 333.01-7.79 332.54-8.94 332.06-10.08 332.06-11.4ZM364.94 0L364.94-3.66 370.31-3.66 370.31-19.41 364.94-19.41 364.94-23.56 375.56-23.56 375.56-19.48Q376.32-20.46 377.38-21.34 378.44-22.22 379.79-22.88 381.13-23.54 382.72-23.91 384.3-24.29 386.11-24.29L386.11-24.29Q386.65-24.29 387.45-24.26 388.26-24.22 388.99-24.1L388.99-24.1 388.99-19.31Q388.14-19.51 387.31-19.58 386.48-19.65 385.7-19.65L385.7-19.65Q383.74-19.65 382-19.03 380.25-18.41 378.88-17.22 377.52-16.04 376.64-14.33 375.76-12.62 375.56-10.42L375.56-10.42 375.56-3.66 384.35-3.66 384.35 0 364.94 0ZM377.27-5.13L377.27-8.23Q377.27-10.52 377.86-12.33 378.44-14.14 379.53-15.38 380.62-16.63 382.18-17.29 383.74-17.94 385.7-17.94L385.7-17.94Q386.11-17.94 386.75-17.88 387.38-17.82 388.08-17.7 388.77-17.58 389.48-17.4 390.19-17.21 390.75-16.97L390.75-16.97 390.75-22.73 391.73-22.73 391.73-15.75Q391.04-16.04 390.25-16.27 389.46-16.5 388.64-16.67 387.82-16.85 387.06-16.93 386.31-17.02 385.7-17.02L385.7-17.02Q383.91-17.02 382.53-16.43 381.15-15.84 380.2-14.75 379.25-13.65 378.75-12.06 378.25-10.47 378.25-8.47L378.25-8.47 378.25-5.13 377.27-5.13ZM366.41-16.77L366.41-17.7 369.29-17.7 369.29-16.77 366.41-16.77ZM366.41 1.71L386.11 1.71 386.11-2.29 387.09-2.29 387.09 2.64 366.41 2.64 366.41 1.71ZM400.73-8.74L400.73-19.41 395.36-19.41 395.36-23.56 400.73-23.56 400.73-28.49 405.98-30.69 405.98-23.56 418.11-23.56 418.11-19.41 405.98-19.41 405.98-7.76Q405.98-5.93 407.13-5.04 408.28-4.15 410.25-4.15L410.25-4.15 417.14-4.15 417.14 0 410.25 0Q408.28 0 406.54-0.43 404.81-0.85 403.52-1.87 402.22-2.88 401.48-4.55 400.73-6.23 400.73-8.74L400.73-8.74ZM407.74-25.02L407.74-29.35 408.72-29.79 408.72-25.02 407.74-25.02ZM407.69-6.76L407.69-17.97 419.87-17.97 419.87-22.46 420.85-22.46 420.85-17.04 408.67-17.04 408.67-5.79Q407.84-6.01 407.69-6.76L407.69-6.76ZM396.83-16.77L396.83-17.7 399.76-17.7 399.76-16.77 396.83-16.77ZM400.59-2.1L400.59-2.1Q401.37-1 402.33-0.27 403.3 0.46 404.49 0.9 405.69 1.34 407.1 1.53 408.52 1.71 410.2 1.71L410.2 1.71 418.9 1.71 418.9-3.05 419.87-3.05 419.87 2.64 410.08 2.64Q408.2 2.64 406.66 2.39 405.13 2.15 403.94 1.6 402.76 1.05 401.92 0.13 401.07-0.78 400.59-2.1ZM427.12 0L427.12-6.71 432.15-6.71Q432.81-5.71 434.03-4.96 435.25-4.2 436.83-3.71 438.4-3.22 440.28-2.98 442.16-2.73 444.14-2.73L444.14-2.73Q445.77-2.73 446.92-2.98 448.07-3.22 448.78-3.66 449.48-4.1 449.8-4.69 450.12-5.27 450.12-5.98L450.12-5.98Q450.12-7.47 447.74-8.53 445.36-9.59 440.21-10.16L440.21-10.16Q436.79-10.52 434.49-11.17 432.2-11.82 430.8-12.74 429.39-13.67 428.79-14.87 428.2-16.06 428.2-17.5L428.2-17.5Q428.2-18.75 428.98-19.97 429.76-21.19 431.36-22.16 432.96-23.12 435.36-23.71 437.77-24.29 441.01-24.29L441.01-24.29Q442.06-24.29 443.16-24.15 444.26-24 445.31-23.72 446.36-23.44 447.31-23.05 448.26-22.66 449.02-22.17L449.02-22.17 449.02-23.54 454.27-23.54 454.27-16.94 449.02-16.94Q448.75-17.7 447.9-18.38 447.04-19.07 445.87-19.58 444.7-20.09 443.38-20.4 442.06-20.7 440.89-20.7L440.89-20.7Q439.35-20.7 437.99-20.48 436.62-20.26 435.62-19.86 434.62-19.46 434.03-18.9 433.44-18.33 433.44-17.65L433.44-17.65Q433.44-17.02 433.9-16.5 434.35-15.99 435.41-15.55 436.47-15.11 438.24-14.73 440.01-14.36 442.65-14.04L442.65-14.04Q446.16-13.6 448.58-12.92 451-12.23 452.51-11.24 454.03-10.25 454.7-8.94 455.37-7.62 455.37-5.91L455.37-5.91Q455.37-4.66 454.61-3.48 453.85-2.29 452.4-1.35 450.95-0.42 448.84 0.16 446.73 0.73 443.99 0.73L443.99 0.73Q442.23 0.73 440.7 0.6 439.16 0.46 437.74 0.15 436.33-0.17 435.01-0.66 433.69-1.15 432.37-1.86L432.37-1.86 432.37 0 427.12 0ZM450.22-14.31L450.22-15.23 456.03-15.23 456.03-22.51 457-22.51 457-14.31 450.22-14.31ZM435.23-17.65L435.23-17.65Q435.3-17.97 435.81-18.24 436.33-18.51 437.12-18.71 437.91-18.92 438.88-19.04 439.84-19.17 440.82-19.17L440.82-19.17Q441.65-19.17 442.54-19.04 443.43-18.92 444.22-18.7 445.02-18.48 445.66-18.15 446.31-17.82 446.68-17.41L446.68-17.41Q446.12-17.65 445.33-17.81 444.55-17.97 443.73-18.07 442.92-18.16 442.14-18.21 441.35-18.26 440.82-18.26L440.82-18.26Q438.84-18.26 437.39-18.07 435.93-17.87 435.23-17.65ZM428.54-12.82L428.54-12.82Q429.22-11.94 430.17-11.25 431.12-10.57 432.47-10.03 433.81-9.5 435.59-9.12 437.37-8.74 439.69-8.47L439.69-8.47Q441.82-8.23 443.38-7.95 444.94-7.67 445.99-7.32 447.04-6.98 447.63-6.56 448.21-6.13 448.39-5.59L448.39-5.59Q447.87-5.93 447.21-6.19 446.55-6.45 445.53-6.67 444.5-6.88 443-7.1 441.5-7.32 439.28-7.59L439.28-7.59Q434.69-8.13 432.03-9.34 429.37-10.55 428.54-12.82ZM428.32 1.71L434.13 1.71 434.13 0.68Q434.81 1 435.86 1.31 436.91 1.61 438.22 1.87 439.52 2.12 440.99 2.28 442.45 2.44 443.97 2.44L443.97 2.44Q446.99 2.44 449.44 1.77 451.88 1.1 453.59-0.04 455.29-1.17 456.21-2.67 457.13-4.17 457.13-5.83L457.13-5.83Q457.13-6.49 457.05-7.06 456.98-7.62 456.8-8.13 456.61-8.64 456.31-9.16 456-9.67 455.54-10.23L455.54-10.23Q458.1-8.72 458.1-5.83L458.1-5.83Q458.1-3.88 457.1-2.2 456.1-0.51 454.26 0.72 452.41 1.95 449.8 2.66 447.19 3.37 443.94 3.37L443.94 3.37Q442.75 3.37 441.53 3.26 440.3 3.15 439.16 2.95 438.01 2.76 436.98 2.49 435.96 2.22 435.15 1.88L435.15 1.88 435.15 2.69 428.32 2.69 428.32 1.71Z" opacity="1" transform="matrix(1,0,0,1,0,0)" fill="black" class="wordmark-text-0" id="SvgjsPath1159" stroke-width="5" stroke="black" stroke-linejoin="round"></path></svg></g></svg></g><g transform="matrix(1,0,0,1,2.5,49.09835367500186)"><svg viewBox="0 0 390.52 24.157659996386784" height="24.157659996386784" width="390.52"><g transform="matrix(1,0,0,1,0,0)"><svg width="390.52" viewBox="-2.05 -42.55 736.49 46.25" height="24.157659996386784" data-palette-color="#ff26a0"><path d="M25.15-7.8L23.75 0 0.95 0 7.3-36 16.3-36 11.35-7.8 25.15-7.8ZM78.5-6.4L78.5-6.4Q79.65-6.4 80.55-6.9L80.55-6.9 80.3-1.25Q77.95 0.7 74.95 0.7L74.95 0.7Q70.4 0.7 69.05-1.4L69.05-1.4Q68.15-2.8 68.15-4.38 68.15-5.95 68.35-7.15L68.35-7.15 71.35-24.05 79.85-24.05 77.05-8.3Q77-8 77-7.75L77-7.75Q77-6.4 78.5-6.4ZM72.35-32.2L72.35-32.2Q72.35-35.4 73.77-36.88 75.2-38.35 78.2-38.35L78.2-38.35Q82.4-38.35 82.4-34.65L82.4-34.65Q82.4-31.5 80.97-30.05 79.55-28.6 76.5-28.6L76.5-28.6Q72.35-28.6 72.35-32.2ZM140.5-24.05L149-24.05Q149.7-21.95 149.7-18.48 149.7-15 148.85-11.8 148-8.6 146.27-5.73 144.55-2.85 141.47-1.07 138.4 0.7 134.4 0.7L134.4 0.7Q128.15 0.7 125.75-1.85L125.75-1.85Q124.15-3.55 124.15-7.05L124.15-7.05Q124.15-8.7 124.55-10.8L124.55-10.8 126.9-24.05 135.4-24.05 133.05-10.75Q132.9-10 132.9-9.4L132.9-9.4Q132.9-6.55 135.85-6.55L135.85-6.55Q141.05-6.55 141.05-17.45L141.05-17.45Q141.05-20 140.65-23.1L140.65-23.1 140.5-24.05ZM202.65 0.7L202.65 0.7Q192.25 0.7 192.25-6.5L192.25-6.5Q192.25-7.5 192.45-8.65L192.45-8.65 193.5-14.85Q194.35-19.65 197.92-22.23 201.5-24.8 207.4-24.8L207.4-24.8Q217.45-24.8 217.45-17.2L217.45-17.2Q217.45-16.1 217.25-14.8L217.25-14.8 216.65-11.25 201.4-11.25 201.2-10.1Q201.1-9.5 201.1-9L201.1-9Q201.1-6.25 204.35-6.25L204.35-6.25Q205.55-6.25 206.4-7 207.25-7.75 207.4-8.75L207.4-8.75 215.7-8.65Q214.05 0.7 202.65 0.7ZM201.9-14.3L208.65-14.3Q208.85-15.15 208.85-15.88 208.85-16.6 208.2-17.35 207.55-18.1 206.12-18.1 204.7-18.1 203.52-17.15 202.35-16.2 201.9-14.3L201.9-14.3ZM329.4-24.75L329.4-24.75Q334.35-24.75 336.35-22L336.35-22Q337.85-20.05 337.85-17.25L337.85-17.25Q337.85-16.1 337.6-14.85L337.6-14.85 336.6-9.25Q335.75-4.45 332.17-1.88 328.6 0.7 323.17 0.7 317.75 0.7 314.85-1.45L314.85-1.45Q312.55-3.15 312.55-6.2L312.55-6.2Q312.55-7 312.7-7.85L312.7-7.85 318-37.95 326.5-37.95 323.95-23.4Q326.05-24.75 329.4-24.75ZM328.3-10.35L328.95-14.1Q329-14.5 329-15.23 329-15.95 328.37-16.78 327.75-17.6 325.67-17.6 323.6-17.6 322.7-16.35L322.7-16.35 321.25-8Q321.85-6.5 323.75-6.5L323.75-6.5Q327.6-6.5 328.3-10.35L328.3-10.35ZM390.9 0.7L390.9 0.7Q380.5 0.7 380.5-6.5L380.5-6.5Q380.5-7.5 380.7-8.65L380.7-8.65 381.75-14.85Q382.6-19.65 386.17-22.23 389.75-24.8 395.65-24.8L395.65-24.8Q405.7-24.8 405.7-17.2L405.7-17.2Q405.7-16.1 405.5-14.8L405.5-14.8 404.9-11.25 389.65-11.25 389.45-10.1Q389.35-9.5 389.35-9L389.35-9Q389.35-6.25 392.6-6.25L392.6-6.25Q393.8-6.25 394.65-7 395.5-7.75 395.65-8.75L395.65-8.75 403.95-8.65Q402.3 0.7 390.9 0.7ZM390.15-14.3L396.9-14.3Q397.1-15.15 397.1-15.88 397.1-16.6 396.45-17.35 395.8-18.1 394.37-18.1 392.95-18.1 391.77-17.15 390.6-16.2 390.15-14.3L390.15-14.3ZM459.15 0.7L459.15 0.7Q453.35 0.7 450.8-1.9L450.8-1.9Q448.9-3.8 448.9-7L448.9-7Q448.9-8.05 449.1-9.25L449.1-9.25 452.5-28.6 461.65-32.4 460.2-24.05 474-24.05 472.75-17 458.95-17 457.95-11.35Q457.75-10.4 457.75-9.65L457.75-9.65Q457.75-6.5 460.75-6.5L460.75-6.5Q462.35-6.5 463.42-7.85 464.5-9.2 464.9-11.45L464.9-11.45 473.2-11.45Q471.1 0.7 459.15 0.7ZM526.64 0.7L526.64 0.7Q520.84 0.7 518.29-1.9L518.29-1.9Q516.39-3.8 516.39-7L516.39-7Q516.39-8.05 516.59-9.25L516.59-9.25 519.99-28.6 529.14-32.4 527.69-24.05 541.49-24.05 540.24-17 526.44-17 525.44-11.35Q525.24-10.4 525.24-9.65L525.24-9.65Q525.24-6.5 528.24-6.5L528.24-6.5Q529.84-6.5 530.92-7.85 531.99-9.2 532.39-11.45L532.39-11.45 540.69-11.45Q538.59 0.7 526.64 0.7ZM593.54 0.7L593.54 0.7Q583.14 0.7 583.14-6.5L583.14-6.5Q583.14-7.5 583.34-8.65L583.34-8.65 584.39-14.85Q585.24-19.65 588.82-22.23 592.39-24.8 598.29-24.8L598.29-24.8Q608.34-24.8 608.34-17.2L608.34-17.2Q608.34-16.1 608.14-14.8L608.14-14.8 607.54-11.25 592.29-11.25 592.09-10.1Q591.99-9.5 591.99-9L591.99-9Q591.99-6.25 595.24-6.25L595.24-6.25Q596.44-6.25 597.29-7 598.14-7.75 598.29-8.75L598.29-8.75 606.59-8.65Q604.94 0.7 593.54 0.7ZM592.79-14.3L599.54-14.3Q599.74-15.15 599.74-15.88 599.74-16.6 599.09-17.35 598.44-18.1 597.02-18.1 595.59-18.1 594.42-17.15 593.24-16.2 592.79-14.3L592.79-14.3ZM675.34-18.95L675.34-18.95Q675.34-17.25 674.77-15.65 674.19-14.05 673.64-13.3L673.64-13.3 673.09-12.6 665.54-12.6Q666.79-13.75 666.79-15.45L666.79-15.45Q666.79-16.35 666.22-16.93 665.64-17.5 664.64-17.5L664.64-17.5Q662.94-17.5 661.69-15.8L661.69-15.8 658.89 0 650.39 0 654.64-24.05 662.54-24.05 661.94-20.7Q664.79-24.75 668.84-24.75L668.84-24.75Q672.09-24.75 673.72-23.2 675.34-21.65 675.34-18.95ZM731.44-39.55L725.99-13.1 719.34-13.1 722.94-39.55 731.44-39.55ZM716.29-2.9L716.29-2.9Q716.29-6.1 717.69-7.58 719.09-9.05 722.14-9.05L722.14-9.05Q726.34-9.05 726.34-5.35L726.34-5.35Q726.34-2.2 724.92-0.75 723.49 0.7 720.44 0.7L720.44 0.7Q716.29 0.7 716.29-2.9Z" opacity="1" transform="matrix(1,0,0,1,0,0)" fill="black" class="slogan-text-1" id="SvgjsPath1158" stroke-width="5" stroke="black" stroke-linejoin="round"></path></svg></g></svg></g></svg></g></svg></g></svg></g></svg></g></svg></g></mask><g mask="url(#e278767a-bb83-43d6-ba79-3447c41f81d1)"><g><path d="M3.036 181.75v-16.31h25.446v-94.192h-27.49v-16.31h59.568l89.145 92.398v-76.088h-27.532v-16.31h77.923v16.31h-27.49v110.502h-21.9l-99.281-105.121v88.811h27.49v16.31zM156.838 188.884h23.11v-110.503h27.49v-18.313h4.088v22.193h-27.532v110.502h-27.156zM74.827 60.068h5.423l65.45 65.993v5.882zM128.305 82.261v-3.88h17.103v3.88zM7.124 82.261v-3.88l17.103 3.88v0zM58.725 159.35v-68.872l4.088 4.506v64.366zM9.168 188.884h77.088v-17.729h4.047v21.608h-81.135zM241.06 181.75v-36.667h20.857c9.038 8.148 18.674 14.113 28.909 17.896 10.262 3.754 20.996 5.631 32.203 5.631v0c4.895 0 9.372-0.473 13.433-1.418 4.088-0.946 7.62-2.253 10.595-3.921 3.003-1.669 5.326-3.615 6.966-5.84 1.669-2.253 2.503-4.672 2.503-7.259v0c0-2.976-0.946-5.729-2.836-8.259-1.919-2.503-4.964-4.769-9.136-6.8-4.171-2.03-9.525-3.796-16.06-5.297-6.563-1.502-14.461-2.725-23.694-3.671v0c-10.735-1.085-19.87-2.864-27.407-5.34-7.536-2.475-13.696-5.479-18.479-9.01-4.783-3.532-8.273-7.467-10.471-11.806-2.225-4.366-3.337-8.955-3.337-13.765v0c0-4.477 1.293-8.802 3.88-12.974 2.586-4.171 6.424-7.87 11.513-11.096 5.089-3.226 11.43-5.826 19.022-7.8 7.62-1.974 16.45-2.962 26.489-2.962v0c5.84 0 11.193 0.459 16.06 1.376 4.839 0.918 9.316 2.155 13.432 3.713 4.116 1.557 7.898 3.407 11.347 5.548 3.476 2.141 6.744 4.436 9.802 6.883v0-13.974h22.902v36.667h-22.902c-2.058-3.393-4.714-6.549-7.967-9.469-3.254-2.92-7.008-5.451-11.263-7.593-4.227-2.114-8.857-3.782-13.891-5.005-5.034-1.224-10.29-1.835-15.768-1.836v0c-5.784 0-10.86 0.514-15.226 1.544-4.394 1.057-8.065 2.419-11.013 4.088-2.948 1.669-5.173 3.518-6.674 5.548-1.502 2.03-2.253 4.032-2.253 6.007v0c0 2.531 0.667 4.922 2.003 7.175 1.335 2.28 3.685 4.394 7.049 6.34 3.337 1.919 7.898 3.643 13.683 5.173 5.757 1.53 13.085 2.837 21.983 3.921v0c12.487 1.557 22.943 3.532 31.37 5.924 8.426 2.364 15.184 5.228 20.273 8.593 5.089 3.365 8.718 7.272 10.888 11.722 2.169 4.45 3.254 9.455 3.254 15.017v0c0 4.199-1.126 8.44-3.379 12.723-2.28 4.283-5.743 8.148-10.387 11.597-4.672 3.476-10.568 6.299-17.687 8.468-7.119 2.169-15.504 3.254-25.154 3.254v0c-6.035 0-11.819-0.389-17.354-1.168-5.534-0.779-10.874-1.933-16.018-3.463-5.117-1.53-10.081-3.407-14.892-5.631-4.839-2.253-9.594-4.867-14.267-7.843v0 15.059zM362.742 102.617v-3.879h24.153v-38.586h4.255v42.465zM281.064 84.305v0c0-1.446 0.737-2.739 2.211-3.88 1.446-1.168 3.462-2.155 6.049-2.962 2.586-0.806 5.618-1.446 9.094-1.918 3.504-0.473 7.3-0.709 11.388-0.71v0c6.174 0 11.889 0.959 17.145 2.879 5.256 1.947 9.622 4.45 13.098 7.508v0c-1.919-0.834-4.06-1.641-6.424-2.419-2.392-0.779-4.895-1.488-7.509-2.127-2.614-0.64-5.284-1.154-8.009-1.544-2.753-0.362-5.465-0.542-8.134-0.542v0c-7.397 0-13.488 0.598-18.271 1.794-4.783 1.168-8.329 2.475-10.638 3.921zM248.068 110.668v0c2.308 2.976 5.006 5.659 8.093 8.051 3.087 2.364 6.827 4.463 11.221 6.299 4.366 1.835 9.483 3.435 15.351 4.798 5.896 1.363 12.779 2.475 20.649 3.337v0c7.676 0.89 14.239 1.808 19.689 2.753 5.479 0.973 10.012 2.016 13.599 3.128 3.587 1.112 6.355 2.378 8.301 3.797 1.947 1.446 3.254 3.115 3.922 5.005v0c-1.974-1.14-4.06-2.169-6.258-3.087-2.197-0.918-5.034-1.808-8.509-2.669-3.448-0.834-7.787-1.669-13.015-2.503-5.228-0.806-11.819-1.682-19.773-2.628v0c-8.343-1.029-15.726-2.419-22.151-4.172-6.424-1.78-11.861-3.81-16.31-6.09-4.45-2.253-7.912-4.755-10.387-7.509-2.475-2.753-3.949-5.59-4.422-8.51zM247.15 188.884h24.153v-10.095c8.148 4.283 16.658 7.55 25.53 9.803 8.899 2.225 18.758 3.337 29.575 3.337v0c8.204 0 16.144-0.876 23.819-2.628 7.676-1.78 14.503-4.436 20.482-7.968 5.951-3.532 10.735-7.981 14.35-13.349 3.587-5.339 5.381-11.611 5.381-18.813v0c0-4.366-0.459-8.329-1.376-11.889-0.918-3.56-2.725-7.133-5.423-10.72v0c1.613 1.14 3.087 2.545 4.422 4.213 1.307 1.669 2.447 3.504 3.42 5.506 0.946 2.002 1.682 4.102 2.211 6.299 0.556 2.225 0.834 4.422 0.834 6.591v0c0 7.453-1.78 14.072-5.339 19.856-3.587 5.757-8.468 10.623-14.642 14.601-6.174 3.977-13.404 6.994-21.692 9.052-8.287 2.086-17.145 3.129-26.572 3.128v0c-10.596 0-20.051-0.918-28.366-2.753-8.315-1.835-15.768-4.38-22.359-7.634v0 7.342h-28.408z" fill="#000000" fill-rule="nonzero" stroke="none" stroke-width="1" stroke-linecap="butt" stroke-linejoin="miter" stroke-miterlimit="10" stroke-dasharray="" stroke-dashoffset="0" font-family="none" font-weight="none" font-size="none" text-anchor="none" style="mix-blend-mode: normal" data-fill-palette-color="tertiary"></path></g></g><g transform="matrix(1,0,0,1,0,86.97199316430567)"><svg viewBox="0 0 395.52 73.25601367138864" height="73.25601367138864" width="395.52"><g><svg viewBox="0 0 395.52 73.25601367138864" height="73.25601367138864" width="395.52"><g><svg viewBox="0 0 395.52 73.25601367138864" height="73.25601367138864" width="395.52"><g><svg viewBox="0 0 395.52 73.25601367138864" height="73.25601367138864" width="395.52"><g id="textblocktransform"><svg viewBox="0 0 395.52 73.25601367138864" height="73.25601367138864" width="395.52" id="textblock"><g><svg viewBox="0 0 395.52 43.39417507093593" height="43.39417507093593" width="395.52"><g transform="matrix(1,0,0,1,0,0)"><svg width="395.52" viewBox="0.6600000000000001 -34.25 460.44 51.41" height="43.39417507093593" data-palette-color="#ff26a0"><path d="M4.15 0L4.15-3.91 10.25-3.91 10.25-26.49 3.66-26.49 3.66-30.4 17.94-30.4 39.31-8.25 39.31-26.49 32.71-26.49 32.71-30.4 51.39-30.4 51.39-26.49 44.8-26.49 44.8 0 39.55 0 15.75-25.2 15.75-3.91 22.34-3.91 22.34 0 4.15 0ZM41.02 1.71L46.56 1.71 46.56-24.78 53.15-24.78 53.15-29.17 54.13-29.17 54.13-23.85 47.53-23.85 47.53 2.64 41.02 2.64 41.02 1.71ZM21.36-29.17L22.66-29.17 38.35-13.35 38.35-11.94 21.36-29.17ZM34.18-23.85L34.18-24.78 38.28-24.78 38.28-23.85 34.18-23.85ZM5.13-23.85L5.13-24.78 9.23-23.85 9.23-23.85 5.13-23.85ZM17.5-5.37L17.5-21.88 18.48-20.8 18.48-5.37 17.5-5.37ZM5.62 1.71L24.1 1.71 24.1-2.54 25.07-2.54 25.07 2.64 5.62 2.64 5.62 1.71ZM62.89-5.47L62.89-5.47Q62.4-6.71 62.17-8.18 61.94-9.64 61.94-11.4L61.94-11.4 61.94-19.41 57.79-19.41 57.79-23.56 67.19-23.56 67.19-13.48Q67.19-11.5 67.37-9.95 67.55-8.4 67.89-7.52L67.89-7.52Q68.33-6.4 69.04-5.62 69.75-4.83 70.64-4.35 71.53-3.86 72.57-3.64 73.61-3.42 74.73-3.42L74.73-3.42Q75.93-3.42 77.21-3.86 78.49-4.3 79.69-5.08 80.88-5.86 81.92-6.93 82.96-8.01 83.66-9.25L83.66-9.25 83.66-19.41 78.29-19.41 78.29-23.56 88.91-23.56 88.91-3.66 93.06-3.66 93.06 0 83.66 0 83.66-3.71Q82.88-2.76 81.77-1.95 80.66-1.15 79.31-0.55 77.95 0.05 76.39 0.39 74.83 0.73 73.14 0.73L73.14 0.73Q69.5 0.73 66.83-0.79 64.16-2.32 62.89-5.47ZM90.62-5.13L90.62-22.31 91.6-22.31 91.6-5.13 90.62-5.13ZM68.94-12.01L68.94-22.31 69.92-22.31 69.92-12.28Q69.92-10.38 70.29-9.11 70.65-7.84 71.26-7.03 71.87-6.23 72.65-5.79 73.44-5.35 74.27-5.1L74.27-5.1Q71.7-5.13 70.32-6.8 68.94-8.47 68.94-12.01L68.94-12.01ZM79.76-16.77L79.76-17.7 82.64-17.7 82.64-16.77 79.76-16.77ZM59.25-16.77L59.25-17.7 60.91-17.7 60.91-16.77 59.25-16.77ZM85.13 1.71L94.82 1.71 94.82-2.29 95.8-2.29 95.8 2.64 85.13 2.64 85.13 1.71ZM63.16-1.64L63.16-1.64Q65.06 0.42 67.45 1.43 69.85 2.44 73.17 2.44L73.17 2.44Q76.12 2.44 78.45 1.67 80.78 0.9 82.69-0.42L82.69-0.42 82.69 0.71Q80.54 2.1 78.22 2.73 75.9 3.37 73.19 3.37L73.19 3.37Q69.5 3.37 66.92 2.09 64.33 0.81 63.16-1.64ZM102.07 0L102.07-3.66 107.44-3.66 107.44-19.41 102.07-19.41 102.07-23.56 112.69-23.56 112.69-19.87Q113.45-20.8 114.51-21.61 115.57-22.41 116.89-23.01 118.21-23.61 119.75-23.95 121.28-24.29 122.97-24.29L122.97-24.29Q125.51-24.29 127.58-23.57 129.66-22.85 131.12-21.35 132.59-19.85 133.38-17.57 134.17-15.28 134.17-12.16L134.17-12.16 134.17-3.66 139.55-3.66 139.55 0 124.78 0 124.78-3.66 128.93-3.66 128.93-10.08Q128.93-12.06 128.74-13.61 128.56-15.16 128.22-16.04L128.22-16.04Q127.78-17.16 127.11-17.94 126.44-18.73 125.59-19.21 124.75-19.7 123.75-19.92 122.75-20.14 121.63-20.14L121.63-20.14Q120.43-20.14 119.15-19.7 117.87-19.26 116.66-18.47 115.45-17.68 114.41-16.6 113.37-15.53 112.69-14.28L112.69-14.28 112.69-3.66 116.84-3.66 116.84 0 102.07 0ZM135.93-5.13L135.93-11.99Q135.93-14.14 135.6-15.98 135.27-17.82 134.61-19.3 133.95-20.78 132.99-21.85 132.03-22.92 130.76-23.56L130.76-23.56Q132.42-23.14 133.59-22.16 134.76-21.17 135.49-19.65 136.23-18.14 136.57-16.16 136.91-14.18 136.91-11.82L136.91-11.82 136.91-5.13 135.93-5.13ZM114.45-5.13L114.45-13.67Q115.06-14.75 115.9-15.63 116.74-16.5 117.73-17.13 118.72-17.75 119.81-18.09 120.89-18.43 121.97-18.43L121.97-18.43Q123.65-18.43 124.7-17.8 125.75-17.16 126.24-16.19L126.24-16.19Q125.48-16.75 124.47-17.14 123.46-17.53 121.92-17.53L121.92-17.53Q120.97-17.53 119.99-17.18 119.01-16.82 118.13-16.24 117.26-15.65 116.55-14.89 115.84-14.14 115.42-13.35L115.42-13.35 115.42-5.13 114.45-5.13ZM103.54-16.77L103.54-17.7 106.42-17.7 106.42-16.77 103.54-16.77ZM126.24 1.71L141.3 1.71 141.3-2.29 142.28-2.29 142.28 2.64 126.24 2.64 126.24 1.71ZM103.54 1.71L118.6 1.71 118.6-2.29 119.58-2.29 119.58 2.64 103.54 2.64 103.54 1.71ZM146.01-11.33L146.01-11.33Q146.01-13.92 146.97-16.26 147.92-18.6 149.82-20.39 151.73-22.17 154.56-23.23 157.39-24.29 161.13-24.29L161.13-24.29Q164.64-24.29 167.4-23.35 170.16-22.41 172.09-20.63 174.02-18.85 175.03-16.27 176.04-13.7 176.04-10.4L176.04-10.4 151.36-10.4Q151.58-8.64 152.49-7.28 153.41-5.91 154.83-4.97 156.24-4.03 158.04-3.54 159.83-3.05 161.78-3.05L161.78-3.05Q163.37-3.05 165.02-3.31 166.67-3.56 168.13-4 169.6-4.44 170.74-4.99 171.89-5.54 172.5-6.13L172.5-6.13 173.43-6.13 175.72-3.64Q173.21-1.49 169.61-0.38 166.01 0.73 161.66 0.73L161.66 0.73Q157.88 0.73 154.96-0.2 152.04-1.12 150.05-2.76 148.06-4.39 147.04-6.59 146.01-8.79 146.01-11.33ZM153.7-8.69L177.7-8.69Q177.75-9.06 177.78-9.48 177.8-9.91 177.8-10.4L177.8-10.4Q177.8-12.48 177.37-14.37 176.95-16.26 176.13-17.88 175.31-19.51 174.11-20.85 172.92-22.19 171.4-23.14L171.4-23.14Q173.01-22.51 174.37-21.4 175.72-20.29 176.7-18.7 177.68-17.11 178.23-15.04 178.78-12.96 178.78-10.4L178.78-10.4Q178.78-10.21 178.76-9.91 178.75-9.62 178.73-9.25 178.7-8.89 178.67-8.51 178.63-8.13 178.58-7.76L178.58-7.76 155.51-7.76Q155.97-6.98 157.22-6.16 158.46-5.35 160.44-4.79L160.44-4.79Q159.22-4.79 158.16-5.08 157.1-5.37 156.23-5.88 155.36-6.4 154.72-7.12 154.07-7.84 153.7-8.69L153.7-8.69ZM151.51-13.45L170.4-13.45Q170.01-15.14 169.19-16.46 168.38-17.77 167.18-18.66 165.98-19.56 164.45-20.03 162.91-20.51 161.08-20.51L161.08-20.51Q159.1-20.51 157.48-19.98 155.85-19.46 154.63-18.52 153.41-17.58 152.62-16.28 151.82-14.99 151.51-13.45L151.51-13.45ZM154.85-14.5L153.73-14.5Q154.63-16.5 156.57-17.65 158.51-18.8 161.08-18.8L161.08-18.8Q162.13-18.8 163.12-18.63 164.1-18.46 164.95-18.1 165.79-17.75 166.42-17.24 167.06-16.72 167.42-16.06L167.42-16.06Q166.03-16.99 164.45-17.43 162.86-17.87 161.03-17.87L161.03-17.87Q158.9-17.87 157.29-16.99 155.68-16.11 154.85-14.5L154.85-14.5ZM148.97-1.07L148.97-1.07Q151.34 0.61 154.47 1.54 157.61 2.47 161.66 2.47L161.66 2.47Q165.62 2.47 169.07 1.56 172.53 0.66 175.31-1.2L175.31-1.2 175.97-0.49Q172.82 1.64 169.34 2.51 165.86 3.39 162.05 3.39L162.05 3.39Q157.1 3.39 153.84 2.2 150.58 1 148.97-1.07ZM185.2 0L185.2-6.71 190.22-6.71Q190.88-5.71 192.1-4.96 193.32-4.2 194.9-3.71 196.47-3.22 198.35-2.98 200.23-2.73 202.21-2.73L202.21-2.73Q203.85-2.73 204.99-2.98 206.14-3.22 206.85-3.66 207.56-4.1 207.88-4.69 208.19-5.27 208.19-5.98L208.19-5.98Q208.19-7.47 205.81-8.53 203.43-9.59 198.28-10.16L198.28-10.16Q194.86-10.52 192.57-11.17 190.27-11.82 188.87-12.74 187.47-13.67 186.87-14.87 186.27-16.06 186.27-17.5L186.27-17.5Q186.27-18.75 187.05-19.97 187.83-21.19 189.43-22.16 191.03-23.12 193.43-23.71 195.84-24.29 199.09-24.29L199.09-24.29Q200.14-24.29 201.24-24.15 202.33-24 203.38-23.72 204.43-23.44 205.39-23.05 206.34-22.66 207.09-22.17L207.09-22.17 207.09-23.54 212.34-23.54 212.34-16.94 207.09-16.94Q206.83-17.7 205.97-18.38 205.12-19.07 203.95-19.58 202.77-20.09 201.45-20.4 200.14-20.7 198.96-20.7L198.96-20.7Q197.43-20.7 196.06-20.48 194.69-20.26 193.69-19.86 192.69-19.46 192.1-18.9 191.52-18.33 191.52-17.65L191.52-17.65Q191.52-17.02 191.97-16.5 192.42-15.99 193.48-15.55 194.55-15.11 196.32-14.73 198.09-14.36 200.72-14.04L200.72-14.04Q204.24-13.6 206.66-12.92 209.07-12.23 210.59-11.24 212.1-10.25 212.77-8.94 213.44-7.62 213.44-5.91L213.44-5.91Q213.44-4.66 212.69-3.48 211.93-2.29 210.48-1.35 209.02-0.42 206.91 0.16 204.8 0.73 202.07 0.73L202.07 0.73Q200.31 0.73 198.77 0.6 197.23 0.46 195.82 0.15 194.4-0.17 193.08-0.66 191.76-1.15 190.44-1.86L190.44-1.86 190.44 0 185.2 0ZM208.29-14.31L208.29-15.23 214.1-15.23 214.1-22.51 215.08-22.51 215.08-14.31 208.29-14.31ZM193.3-17.65L193.3-17.65Q193.37-17.97 193.89-18.24 194.4-18.51 195.19-18.71 195.99-18.92 196.95-19.04 197.91-19.17 198.89-19.17L198.89-19.17Q199.72-19.17 200.61-19.04 201.5-18.92 202.3-18.7 203.09-18.48 203.74-18.15 204.38-17.82 204.75-17.41L204.75-17.41Q204.19-17.65 203.41-17.81 202.63-17.97 201.81-18.07 200.99-18.16 200.21-18.21 199.43-18.26 198.89-18.26L198.89-18.26Q196.91-18.26 195.46-18.07 194.01-17.87 193.3-17.65ZM186.61-12.82L186.61-12.82Q187.29-11.94 188.25-11.25 189.2-10.57 190.54-10.03 191.88-9.5 193.67-9.12 195.45-8.74 197.77-8.47L197.77-8.47Q199.89-8.23 201.45-7.95 203.02-7.67 204.07-7.32 205.12-6.98 205.7-6.56 206.29-6.13 206.46-5.59L206.46-5.59Q205.95-5.93 205.29-6.19 204.63-6.45 203.6-6.67 202.58-6.88 201.08-7.1 199.57-7.32 197.35-7.59L197.35-7.59Q192.76-8.13 190.1-9.34 187.44-10.55 186.61-12.82ZM186.39 1.71L192.2 1.71 192.2 0.68Q192.89 1 193.94 1.31 194.99 1.61 196.29 1.87 197.6 2.12 199.06 2.28 200.53 2.44 202.04 2.44L202.04 2.44Q205.07 2.44 207.51 1.77 209.95 1.1 211.66-0.04 213.37-1.17 214.28-2.67 215.2-4.17 215.2-5.83L215.2-5.83Q215.2-6.49 215.13-7.06 215.05-7.62 214.87-8.13 214.69-8.64 214.38-9.16 214.08-9.67 213.61-10.23L213.61-10.23Q216.18-8.72 216.18-5.83L216.18-5.83Q216.18-3.88 215.18-2.2 214.17-0.51 212.33 0.72 210.49 1.95 207.88 2.66 205.26 3.37 202.02 3.37L202.02 3.37Q200.82 3.37 199.6 3.26 198.38 3.15 197.23 2.95 196.08 2.76 195.06 2.49 194.03 2.22 193.23 1.88L193.23 1.88 193.23 2.69 186.39 2.69 186.39 1.71ZM239.44 0L239.44-8.79 244.44-8.79Q247.69-5.86 251.38-4.5 255.06-3.15 259.09-3.15L259.09-3.15Q260.85-3.15 262.31-3.49 263.78-3.83 264.85-4.43 265.93-5.03 266.53-5.83 267.12-6.64 267.12-7.57L267.12-7.57Q267.12-8.64 266.44-9.55 265.76-10.45 264.26-11.18 262.75-11.91 260.4-12.45 258.04-12.99 254.72-13.33L254.72-13.33Q250.86-13.72 248.15-14.61 245.44-15.5 243.72-16.77 242-18.04 241.21-19.6 240.41-21.17 240.41-22.9L240.41-22.9Q240.41-24.51 241.34-26.01 242.27-27.51 244.1-28.67 245.93-29.83 248.67-30.54 251.4-31.25 255.01-31.25L255.01-31.25Q257.11-31.25 258.86-30.92 260.61-30.59 262.08-30.03 263.56-29.47 264.8-28.7 266.05-27.93 267.15-27.05L267.15-27.05 267.15-30.4 272.64-30.4 272.64-21.61 267.15-21.61Q266.42-22.83 265.24-23.88 264.07-24.93 262.55-25.7 261.02-26.46 259.21-26.9 257.41-27.34 255.43-27.34L255.43-27.34Q253.35-27.34 251.78-26.97 250.2-26.59 249.14-25.99 248.08-25.39 247.54-24.66 247.01-23.93 247.01-23.22L247.01-23.22Q247.01-22.31 247.48-21.5 247.96-20.68 249.17-19.98 250.38-19.29 252.45-18.74 254.53-18.19 257.72-17.8L257.72-17.8Q262.22-17.24 265.24-16.38 268.27-15.53 270.1-14.32 271.93-13.11 272.71-11.51 273.5-9.91 273.5-7.91L273.5-7.91Q273.5-6.4 272.68-4.86 271.86-3.32 270.19-2.08 268.52-0.83 265.95-0.05 263.39 0.73 259.92 0.73L259.92 0.73Q257.75 0.73 255.76 0.45 253.77 0.17 251.93-0.38 250.08-0.93 248.35-1.73 246.62-2.54 244.93-3.61L244.93-3.61 244.93 0 239.44 0ZM268.61-18.97L268.61-19.9 274.4-19.9 274.4-29.15 275.42-29.15 275.42-18.97 268.61-18.97ZM249.03-23.36L249.03-23.36Q249.03-23.88 249.56-24.29 250.08-24.71 251.01-25 251.94-25.29 253.2-25.46 254.45-25.63 255.92-25.63L255.92-25.63Q258.14-25.63 260.03-24.94 261.92-24.24 263.17-23.14L263.17-23.14Q262.49-23.44 261.63-23.72 260.78-24 259.84-24.23 258.9-24.46 257.91-24.6 256.92-24.73 255.97-24.73L255.97-24.73Q253.31-24.73 251.58-24.3 249.86-23.88 249.03-23.36ZM241.12-17.04L241.12-17.04Q241.95-15.97 243.06-15.11 244.17-14.26 245.75-13.6 247.32-12.94 249.44-12.45 251.55-11.96 254.38-11.65L254.38-11.65Q257.14-11.33 259.1-10.99 261.07-10.64 262.36-10.24 263.66-9.84 264.35-9.33 265.05-8.81 265.29-8.13L265.29-8.13Q264.58-8.54 263.79-8.87 263-9.2 261.75-9.51 260.51-9.81 258.63-10.11 256.75-10.4 253.89-10.74L253.89-10.74Q250.89-11.11 248.58-11.74 246.27-12.38 244.67-13.2 243.08-14.01 242.18-15 241.29-15.99 241.12-17.04ZM240.9 1.71L246.69 1.71 246.69-0.71Q249.62 0.83 252.82 1.64 256.02 2.44 259.9 2.44L259.9 2.44Q262.85 2.44 265.61 1.81 268.37 1.17 270.52-0.1 272.67-1.37 273.96-3.3 275.25-5.22 275.25-7.81L275.25-7.81Q275.25-9.38 274.92-10.66 274.59-11.94 273.62-13.23L273.62-13.23Q274.2-12.82 274.68-12.22 275.16-11.62 275.5-10.9 275.84-10.18 276.03-9.39 276.23-8.59 276.23-7.81L276.23-7.81Q276.23-5.13 274.95-3.05 273.67-0.98 271.44 0.45 269.22 1.88 266.24 2.62 263.27 3.37 259.87 3.37L259.87 3.37Q256.06 3.37 253.07 2.71 250.08 2.05 247.71 0.88L247.71 0.88 247.71 2.64 240.9 2.64 240.9 1.71ZM283.41 7.86L287.56 7.86 287.56-19.41 282.18-19.41 282.18-23.56 292.8-23.56 292.8-20.31Q294.64-22.17 297.25-23.23 299.86-24.29 302.94-24.29L302.94-24.29Q306.31-24.29 308.92-23.28 311.53-22.27 313.31-20.59 315.09-18.92 316.02-16.77 316.95-14.62 316.95-12.33L316.95-12.33Q316.95-9.35 315.94-7.02 314.92-4.69 313.09-3.08 311.26-1.46 308.72-0.61 306.18 0.24 303.11 0.24L303.11 0.24Q299.93 0.24 297.28-0.72 294.64-1.68 292.8-3.52L292.8-3.52 292.8 7.86 299.4 7.86 299.4 11.52 283.41 11.52 283.41 7.86ZM294.44 6.64L294.44-0.05Q296.2 0.93 298.51 1.44 300.81 1.95 303.16 1.95L303.16 1.95Q306.38 1.95 309.21 1.04 312.04 0.12 314.15-1.67 316.27-3.47 317.49-6.14 318.71-8.81 318.71-12.33L318.71-12.33Q318.71-13.84 318.27-15.44 317.83-17.04 317.02-18.54 316.22-20.04 315.05-21.36 313.87-22.68 312.41-23.63L312.41-23.63Q314.24-22.8 315.62-21.5 317-20.19 317.91-18.65 318.83-17.11 319.29-15.47 319.76-13.82 319.76-12.33L319.76-12.33Q319.76-8.89 318.61-6.08 317.46-3.27 315.3-1.28 313.14 0.71 310.05 1.79 306.96 2.88 303.08 2.88L303.08 2.88Q302.11 2.88 301.08 2.77 300.06 2.66 299.05 2.47 298.05 2.27 297.11 2 296.17 1.73 295.42 1.39L295.42 1.39 295.42 6.64 294.44 6.64ZM292.8-11.84L292.8-11.84Q292.8-9.89 293.62-8.35 294.44-6.81 295.86-5.74 297.27-4.66 299.16-4.09 301.06-3.52 303.23-3.52L303.23-3.52Q305.16-3.52 306.71-4.13 308.26-4.74 309.36-5.86 310.46-6.98 311.05-8.58 311.65-10.18 311.65-12.13L311.65-12.13Q311.65-13.99 310.96-15.54 310.26-17.09 309.04-18.19 307.82-19.29 306.17-19.9 304.52-20.51 302.62-20.51L302.62-20.51Q300.54-20.51 298.75-19.9 296.96-19.29 295.64-18.15 294.32-17.02 293.56-15.42 292.8-13.82 292.8-11.84ZM294.56-11.87L294.56-11.87Q294.56-13.26 295.14-14.53 295.71-15.8 296.76-16.75 297.81-17.7 299.27-18.26 300.74-18.82 302.55-18.82L302.55-18.82Q304.47-18.82 305.96-18.15 307.45-17.48 308.23-16.38L308.23-16.38Q306.77-17.31 305.37-17.59 303.96-17.87 302.55-17.87L302.55-17.87Q300.96-17.87 299.68-17.37 298.4-16.87 297.48-16.05 296.56-15.23 296.08-14.16 295.59-13.09 295.59-11.94L295.59-11.94Q295.59-9.72 296.71-8.11 297.83-6.49 300.35-5.32L300.35-5.32Q299.05-5.59 297.99-6.16 296.93-6.74 296.16-7.58 295.39-8.42 294.98-9.5 294.56-10.57 294.56-11.87ZM283.65-16.77L283.65-17.7 286.53-17.7 286.53-16.77 283.65-16.77ZM284.87 13.23L301.15 13.23 301.15 9.23 302.13 9.23 302.13 14.16 284.87 14.16 284.87 13.23ZM324.93-11.4L324.93-11.4Q324.93-14.06 326.08-16.42 327.23-18.77 329.29-20.52 331.35-22.27 334.23-23.28 337.11-24.29 340.56-24.29L340.56-24.29Q344.17-24.29 347.01-23.33 349.86-22.36 351.82-20.65 353.79-18.95 354.83-16.6 355.86-14.26 355.86-11.5L355.86-11.5Q355.86-8.84 354.73-6.59 353.59-4.35 351.51-2.72 349.42-1.1 346.5-0.18 343.58 0.73 339.99 0.73L339.99 0.73Q336.6 0.73 333.83-0.28 331.06-1.29 329.08-2.98 327.1-4.66 326.02-6.85 324.93-9.03 324.93-11.4ZM328.76-1.12L328.76-1.12Q331.13 0.59 334 1.51 336.87 2.44 340.48 2.44L340.48 2.44Q343.85 2.44 346.95 1.53 350.05 0.61 352.42-1.17 354.79-2.95 356.21-5.55 357.62-8.15 357.62-11.5L357.62-11.5Q357.62-13.13 357.17-14.81 356.72-16.48 355.9-18.02 355.08-19.56 353.91-20.89 352.74-22.22 351.3-23.14L351.3-23.14Q352.93-22.41 354.29-21.22 355.64-20.02 356.6-18.49 357.55-16.97 358.07-15.19 358.6-13.4 358.6-11.5L358.6-11.5Q358.6-9.11 357.91-7.07 357.23-5.03 356.02-3.38 354.81-1.73 353.14-0.46 351.47 0.81 349.47 1.65 347.47 2.49 345.21 2.93 342.95 3.37 340.61 3.37L340.61 3.37Q338.65 3.37 336.87 3.06 335.09 2.76 333.56 2.19 332.04 1.61 330.81 0.78 329.59-0.05 328.76-1.12ZM330.35-11.5L330.35-11.5Q330.35-9.62 331.07-8.07 331.79-6.52 333.11-5.41 334.43-4.3 336.27-3.69 338.11-3.08 340.36-3.08L340.36-3.08Q342.63-3.08 344.49-3.7 346.34-4.32 347.69-5.43 349.03-6.54 349.76-8.09 350.49-9.64 350.49-11.5L350.49-11.5Q350.49-13.33 349.76-14.95 349.03-16.58 347.71-17.81 346.39-19.04 344.55-19.76 342.7-20.48 340.48-20.48L340.48-20.48Q338.16-20.48 336.3-19.79 334.43-19.09 333.11-17.88 331.79-16.67 331.07-15.04 330.35-13.4 330.35-11.5ZM332.06-11.4L332.06-11.4Q332.06-12.94 332.67-14.29 333.28-15.65 334.39-16.64 335.5-17.63 337.05-18.2 338.6-18.77 340.48-18.77L340.48-18.77Q341.68-18.77 342.8-18.52 343.93-18.26 344.88-17.77 345.83-17.29 346.56-16.59 347.29-15.89 347.73-15.01L347.73-15.01Q346.12-16.48 344.38-17.16 342.63-17.85 340.43-17.85L340.43-17.85Q338.85-17.85 337.5-17.33 336.16-16.82 335.16-15.94 334.16-15.06 333.6-13.89 333.04-12.72 333.04-11.4L333.04-11.4Q333.04-10.3 333.31-9.35 333.57-8.4 334.22-7.58 334.87-6.76 335.94-6.1 337.02-5.44 338.63-4.93L338.63-4.93Q337.16-5.03 335.95-5.55 334.75-6.08 333.88-6.93 333.01-7.79 332.54-8.94 332.06-10.08 332.06-11.4ZM364.94 0L364.94-3.66 370.31-3.66 370.31-19.41 364.94-19.41 364.94-23.56 375.56-23.56 375.56-19.48Q376.32-20.46 377.38-21.34 378.44-22.22 379.79-22.88 381.13-23.54 382.72-23.91 384.3-24.29 386.11-24.29L386.11-24.29Q386.65-24.29 387.45-24.26 388.26-24.22 388.99-24.1L388.99-24.1 388.99-19.31Q388.14-19.51 387.31-19.58 386.48-19.65 385.7-19.65L385.7-19.65Q383.74-19.65 382-19.03 380.25-18.41 378.88-17.22 377.52-16.04 376.64-14.33 375.76-12.62 375.56-10.42L375.56-10.42 375.56-3.66 384.35-3.66 384.35 0 364.94 0ZM377.27-5.13L377.27-8.23Q377.27-10.52 377.86-12.33 378.44-14.14 379.53-15.38 380.62-16.63 382.18-17.29 383.74-17.94 385.7-17.94L385.7-17.94Q386.11-17.94 386.75-17.88 387.38-17.82 388.08-17.7 388.77-17.58 389.48-17.4 390.19-17.21 390.75-16.97L390.75-16.97 390.75-22.73 391.73-22.73 391.73-15.75Q391.04-16.04 390.25-16.27 389.46-16.5 388.64-16.67 387.82-16.85 387.06-16.93 386.31-17.02 385.7-17.02L385.7-17.02Q383.91-17.02 382.53-16.43 381.15-15.84 380.2-14.75 379.25-13.65 378.75-12.06 378.25-10.47 378.25-8.47L378.25-8.47 378.25-5.13 377.27-5.13ZM366.41-16.77L366.41-17.7 369.29-17.7 369.29-16.77 366.41-16.77ZM366.41 1.71L386.11 1.71 386.11-2.29 387.09-2.29 387.09 2.64 366.41 2.64 366.41 1.71ZM400.73-8.74L400.73-19.41 395.36-19.41 395.36-23.56 400.73-23.56 400.73-28.49 405.98-30.69 405.98-23.56 418.11-23.56 418.11-19.41 405.98-19.41 405.98-7.76Q405.98-5.93 407.13-5.04 408.28-4.15 410.25-4.15L410.25-4.15 417.14-4.15 417.14 0 410.25 0Q408.28 0 406.54-0.43 404.81-0.85 403.52-1.87 402.22-2.88 401.48-4.55 400.73-6.23 400.73-8.74L400.73-8.74ZM407.74-25.02L407.74-29.35 408.72-29.79 408.72-25.02 407.74-25.02ZM407.69-6.76L407.69-17.97 419.87-17.97 419.87-22.46 420.85-22.46 420.85-17.04 408.67-17.04 408.67-5.79Q407.84-6.01 407.69-6.76L407.69-6.76ZM396.83-16.77L396.83-17.7 399.76-17.7 399.76-16.77 396.83-16.77ZM400.59-2.1L400.59-2.1Q401.37-1 402.33-0.27 403.3 0.46 404.49 0.9 405.69 1.34 407.1 1.53 408.52 1.71 410.2 1.71L410.2 1.71 418.9 1.71 418.9-3.05 419.87-3.05 419.87 2.64 410.08 2.64Q408.2 2.64 406.66 2.39 405.13 2.15 403.94 1.6 402.76 1.05 401.92 0.13 401.07-0.78 400.59-2.1ZM427.12 0L427.12-6.71 432.15-6.71Q432.81-5.71 434.03-4.96 435.25-4.2 436.83-3.71 438.4-3.22 440.28-2.98 442.16-2.73 444.14-2.73L444.14-2.73Q445.77-2.73 446.92-2.98 448.07-3.22 448.78-3.66 449.48-4.1 449.8-4.69 450.12-5.27 450.12-5.98L450.12-5.98Q450.12-7.47 447.74-8.53 445.36-9.59 440.21-10.16L440.21-10.16Q436.79-10.52 434.49-11.17 432.2-11.82 430.8-12.74 429.39-13.67 428.79-14.87 428.2-16.06 428.2-17.5L428.2-17.5Q428.2-18.75 428.98-19.97 429.76-21.19 431.36-22.16 432.96-23.12 435.36-23.71 437.77-24.29 441.01-24.29L441.01-24.29Q442.06-24.29 443.16-24.15 444.26-24 445.31-23.72 446.36-23.44 447.31-23.05 448.26-22.66 449.02-22.17L449.02-22.17 449.02-23.54 454.27-23.54 454.27-16.94 449.02-16.94Q448.75-17.7 447.9-18.38 447.04-19.07 445.87-19.58 444.7-20.09 443.38-20.4 442.06-20.7 440.89-20.7L440.89-20.7Q439.35-20.7 437.99-20.48 436.62-20.26 435.62-19.86 434.62-19.46 434.03-18.9 433.44-18.33 433.44-17.65L433.44-17.65Q433.44-17.02 433.9-16.5 434.35-15.99 435.41-15.55 436.47-15.11 438.24-14.73 440.01-14.36 442.65-14.04L442.65-14.04Q446.16-13.6 448.58-12.92 451-12.23 452.51-11.24 454.03-10.25 454.7-8.94 455.37-7.62 455.37-5.91L455.37-5.91Q455.37-4.66 454.61-3.48 453.85-2.29 452.4-1.35 450.95-0.42 448.84 0.16 446.73 0.73 443.99 0.73L443.99 0.73Q442.23 0.73 440.7 0.6 439.16 0.46 437.74 0.15 436.33-0.17 435.01-0.66 433.69-1.15 432.37-1.86L432.37-1.86 432.37 0 427.12 0ZM450.22-14.31L450.22-15.23 456.03-15.23 456.03-22.51 457-22.51 457-14.31 450.22-14.31ZM435.23-17.65L435.23-17.65Q435.3-17.97 435.81-18.24 436.33-18.51 437.12-18.71 437.91-18.92 438.88-19.04 439.84-19.17 440.82-19.17L440.82-19.17Q441.65-19.17 442.54-19.04 443.43-18.92 444.22-18.7 445.02-18.48 445.66-18.15 446.31-17.82 446.68-17.41L446.68-17.41Q446.12-17.65 445.33-17.81 444.55-17.97 443.73-18.07 442.92-18.16 442.14-18.21 441.35-18.26 440.82-18.26L440.82-18.26Q438.84-18.26 437.39-18.07 435.93-17.87 435.23-17.65ZM428.54-12.82L428.54-12.82Q429.22-11.94 430.17-11.25 431.12-10.57 432.47-10.03 433.81-9.5 435.59-9.12 437.37-8.74 439.69-8.47L439.69-8.47Q441.82-8.23 443.38-7.95 444.94-7.67 445.99-7.32 447.04-6.98 447.63-6.56 448.21-6.13 448.39-5.59L448.39-5.59Q447.87-5.93 447.21-6.19 446.55-6.45 445.53-6.67 444.5-6.88 443-7.1 441.5-7.32 439.28-7.59L439.28-7.59Q434.69-8.13 432.03-9.34 429.37-10.55 428.54-12.82ZM428.32 1.71L434.13 1.71 434.13 0.68Q434.81 1 435.86 1.31 436.91 1.61 438.22 1.87 439.52 2.12 440.99 2.28 442.45 2.44 443.97 2.44L443.97 2.44Q446.99 2.44 449.44 1.77 451.88 1.1 453.59-0.04 455.29-1.17 456.21-2.67 457.13-4.17 457.13-5.83L457.13-5.83Q457.13-6.49 457.05-7.06 456.98-7.62 456.8-8.13 456.61-8.64 456.31-9.16 456-9.67 455.54-10.23L455.54-10.23Q458.1-8.72 458.1-5.83L458.1-5.83Q458.1-3.88 457.1-2.2 456.1-0.51 454.26 0.72 452.41 1.95 449.8 2.66 447.19 3.37 443.94 3.37L443.94 3.37Q442.75 3.37 441.53 3.26 440.3 3.15 439.16 2.95 438.01 2.76 436.98 2.49 435.96 2.22 435.15 1.88L435.15 1.88 435.15 2.69 428.32 2.69 428.32 1.71Z" opacity="1" transform="matrix(1,0,0,1,0,0)" fill="#000000" class="wordmark-text-0" data-fill-palette-color="primary" id="text-0"></path></svg></g></svg></g><g transform="matrix(1,0,0,1,2.5,49.09835367500186)"><svg viewBox="0 0 390.52 24.157659996386784" height="24.157659996386784" width="390.52"><g transform="matrix(1,0,0,1,0,0)"><svg width="390.52" viewBox="-2.05 -42.55 736.49 46.25" height="24.157659996386784" data-palette-color="#ff26a0"><path d="M25.15-7.8L23.75 0 0.95 0 7.3-36 16.3-36 11.35-7.8 25.15-7.8ZM78.5-6.4L78.5-6.4Q79.65-6.4 80.55-6.9L80.55-6.9 80.3-1.25Q77.95 0.7 74.95 0.7L74.95 0.7Q70.4 0.7 69.05-1.4L69.05-1.4Q68.15-2.8 68.15-4.38 68.15-5.95 68.35-7.15L68.35-7.15 71.35-24.05 79.85-24.05 77.05-8.3Q77-8 77-7.75L77-7.75Q77-6.4 78.5-6.4ZM72.35-32.2L72.35-32.2Q72.35-35.4 73.77-36.88 75.2-38.35 78.2-38.35L78.2-38.35Q82.4-38.35 82.4-34.65L82.4-34.65Q82.4-31.5 80.97-30.05 79.55-28.6 76.5-28.6L76.5-28.6Q72.35-28.6 72.35-32.2ZM140.5-24.05L149-24.05Q149.7-21.95 149.7-18.48 149.7-15 148.85-11.8 148-8.6 146.27-5.73 144.55-2.85 141.47-1.07 138.4 0.7 134.4 0.7L134.4 0.7Q128.15 0.7 125.75-1.85L125.75-1.85Q124.15-3.55 124.15-7.05L124.15-7.05Q124.15-8.7 124.55-10.8L124.55-10.8 126.9-24.05 135.4-24.05 133.05-10.75Q132.9-10 132.9-9.4L132.9-9.4Q132.9-6.55 135.85-6.55L135.85-6.55Q141.05-6.55 141.05-17.45L141.05-17.45Q141.05-20 140.65-23.1L140.65-23.1 140.5-24.05ZM202.65 0.7L202.65 0.7Q192.25 0.7 192.25-6.5L192.25-6.5Q192.25-7.5 192.45-8.65L192.45-8.65 193.5-14.85Q194.35-19.65 197.92-22.23 201.5-24.8 207.4-24.8L207.4-24.8Q217.45-24.8 217.45-17.2L217.45-17.2Q217.45-16.1 217.25-14.8L217.25-14.8 216.65-11.25 201.4-11.25 201.2-10.1Q201.1-9.5 201.1-9L201.1-9Q201.1-6.25 204.35-6.25L204.35-6.25Q205.55-6.25 206.4-7 207.25-7.75 207.4-8.75L207.4-8.75 215.7-8.65Q214.05 0.7 202.65 0.7ZM201.9-14.3L208.65-14.3Q208.85-15.15 208.85-15.88 208.85-16.6 208.2-17.35 207.55-18.1 206.12-18.1 204.7-18.1 203.52-17.15 202.35-16.2 201.9-14.3L201.9-14.3ZM329.4-24.75L329.4-24.75Q334.35-24.75 336.35-22L336.35-22Q337.85-20.05 337.85-17.25L337.85-17.25Q337.85-16.1 337.6-14.85L337.6-14.85 336.6-9.25Q335.75-4.45 332.17-1.88 328.6 0.7 323.17 0.7 317.75 0.7 314.85-1.45L314.85-1.45Q312.55-3.15 312.55-6.2L312.55-6.2Q312.55-7 312.7-7.85L312.7-7.85 318-37.95 326.5-37.95 323.95-23.4Q326.05-24.75 329.4-24.75ZM328.3-10.35L328.95-14.1Q329-14.5 329-15.23 329-15.95 328.37-16.78 327.75-17.6 325.67-17.6 323.6-17.6 322.7-16.35L322.7-16.35 321.25-8Q321.85-6.5 323.75-6.5L323.75-6.5Q327.6-6.5 328.3-10.35L328.3-10.35ZM390.9 0.7L390.9 0.7Q380.5 0.7 380.5-6.5L380.5-6.5Q380.5-7.5 380.7-8.65L380.7-8.65 381.75-14.85Q382.6-19.65 386.17-22.23 389.75-24.8 395.65-24.8L395.65-24.8Q405.7-24.8 405.7-17.2L405.7-17.2Q405.7-16.1 405.5-14.8L405.5-14.8 404.9-11.25 389.65-11.25 389.45-10.1Q389.35-9.5 389.35-9L389.35-9Q389.35-6.25 392.6-6.25L392.6-6.25Q393.8-6.25 394.65-7 395.5-7.75 395.65-8.75L395.65-8.75 403.95-8.65Q402.3 0.7 390.9 0.7ZM390.15-14.3L396.9-14.3Q397.1-15.15 397.1-15.88 397.1-16.6 396.45-17.35 395.8-18.1 394.37-18.1 392.95-18.1 391.77-17.15 390.6-16.2 390.15-14.3L390.15-14.3ZM459.15 0.7L459.15 0.7Q453.35 0.7 450.8-1.9L450.8-1.9Q448.9-3.8 448.9-7L448.9-7Q448.9-8.05 449.1-9.25L449.1-9.25 452.5-28.6 461.65-32.4 460.2-24.05 474-24.05 472.75-17 458.95-17 457.95-11.35Q457.75-10.4 457.75-9.65L457.75-9.65Q457.75-6.5 460.75-6.5L460.75-6.5Q462.35-6.5 463.42-7.85 464.5-9.2 464.9-11.45L464.9-11.45 473.2-11.45Q471.1 0.7 459.15 0.7ZM526.64 0.7L526.64 0.7Q520.84 0.7 518.29-1.9L518.29-1.9Q516.39-3.8 516.39-7L516.39-7Q516.39-8.05 516.59-9.25L516.59-9.25 519.99-28.6 529.14-32.4 527.69-24.05 541.49-24.05 540.24-17 526.44-17 525.44-11.35Q525.24-10.4 525.24-9.65L525.24-9.65Q525.24-6.5 528.24-6.5L528.24-6.5Q529.84-6.5 530.92-7.85 531.99-9.2 532.39-11.45L532.39-11.45 540.69-11.45Q538.59 0.7 526.64 0.7ZM593.54 0.7L593.54 0.7Q583.14 0.7 583.14-6.5L583.14-6.5Q583.14-7.5 583.34-8.65L583.34-8.65 584.39-14.85Q585.24-19.65 588.82-22.23 592.39-24.8 598.29-24.8L598.29-24.8Q608.34-24.8 608.34-17.2L608.34-17.2Q608.34-16.1 608.14-14.8L608.14-14.8 607.54-11.25 592.29-11.25 592.09-10.1Q591.99-9.5 591.99-9L591.99-9Q591.99-6.25 595.24-6.25L595.24-6.25Q596.44-6.25 597.29-7 598.14-7.75 598.29-8.75L598.29-8.75 606.59-8.65Q604.94 0.7 593.54 0.7ZM592.79-14.3L599.54-14.3Q599.74-15.15 599.74-15.88 599.74-16.6 599.09-17.35 598.44-18.1 597.02-18.1 595.59-18.1 594.42-17.15 593.24-16.2 592.79-14.3L592.79-14.3ZM675.34-18.95L675.34-18.95Q675.34-17.25 674.77-15.65 674.19-14.05 673.64-13.3L673.64-13.3 673.09-12.6 665.54-12.6Q666.79-13.75 666.79-15.45L666.79-15.45Q666.79-16.35 666.22-16.93 665.64-17.5 664.64-17.5L664.64-17.5Q662.94-17.5 661.69-15.8L661.69-15.8 658.89 0 650.39 0 654.64-24.05 662.54-24.05 661.94-20.7Q664.79-24.75 668.84-24.75L668.84-24.75Q672.09-24.75 673.72-23.2 675.34-21.65 675.34-18.95ZM731.44-39.55L725.99-13.1 719.34-13.1 722.94-39.55 731.44-39.55ZM716.29-2.9L716.29-2.9Q716.29-6.1 717.69-7.58 719.09-9.05 722.14-9.05L722.14-9.05Q726.34-9.05 726.34-5.35L726.34-5.35Q726.34-2.2 724.92-0.75 723.49 0.7 720.44 0.7L720.44 0.7Q716.29 0.7 716.29-2.9Z" opacity="1" transform="matrix(1,0,0,1,0,0)" fill="#000000" class="slogan-text-1" data-fill-palette-color="secondary" id="text-1"></path></svg></g></svg></g></svg></g></svg></g></svg></g></svg></g></svg></g></svg></g><defs></defs></svg><rect width="395.52" height="247.2" fill="none" stroke="none" visibility="hidden"></rect></g></svg></g></svg>